# AST/ASF file generated using VICON BodyLanguage
# -----------------------------------------------
:version 1.10
:name VICON
:units
  mass 1.0
  length 0.45
  angle deg
:documentation
   .ast/.asf automatically generated from VICON data using
   VICON BodyBuilder and BodyLanguage model FoxedUp or BRILLIANT.MOD
:root
   order TX TY TZ RX RY RZ
   axis XYZ
   position 0 0 0  
   orientation 0 0 0 
:bonedata
  begin
     id 1 
     name lhipjoint
     direction 0.499407 -0.589134 0.635228 
     length 2.99786 
     axis 0 0 0  XYZ
  end
  begin
     id 2 
     name lfemur
     direction 0.34202 -0.939693 0  
     length 6.89561  
     axis 0 0 20  XYZ
    dof rx ry rz
    limits (-160.0 20.0)
           (-70.0 70.0)
           (-60.0 70.0)
  end
  begin
     id 3 
     name ltibia
     direction 0.34202 -0.939693 0   
     length 8.00494   
     axis 0 0 20   XYZ
    dof rx
    limits (-10.0 170.0)
  end
  begin
     id 4 
     name lfoot
     direction 0.0680929 -0.194353 0.978565   
     length 2.06695   
     axis -90 7.62852e-016 20   XYZ
    dof rx rz
    limits (-45.0 90.0)
           (-70.0 20.0)
  end
  begin
     id 5 
     name ltoes
     direction 1.5346e-011 -4.21731e-011 1   
     length 1.04539   
     axis -90 7.62852e-016 20   XYZ
    dof rx
    limits (-90.0 20.0)
  end
  begin
     id 6 
     name rhipjoint
     direction -0.347526 -0.63762 0.687508   
     length 2.76989  
     axis 0 0 0  XYZ 
  end
  begin
     id 7 
     name rfemur
     direction -0.34202 -0.939693 0   
     length 6.97892   
     axis 0 0 -20   XYZ
    dof rx ry rz
    limits (-160.0 20.0)
           (-70.0 70.0)
           (-70.0 60.0)
  end
  begin
     id 8 
     name rtibia
     direction -0.34202 -0.939693 0   
     length 7.77056   
     axis 0 0 -20   XYZ
    dof rx
    limits (-10.0 170.0)
 end
 begin
     id 9 
     name rfoot
     direction -0.102685 -0.282124 0.953867   
     length 2.15099  
     axis -90 -7.62852e-016 -20   XYZ
    dof rx rz
    limits (-45.0 90.0)
           (-20.0 70.0)
  end
  begin
     id 10 
     name rtoes
     direction -0.000106751 -0.00118973 0.999999   
     length 1.0765   
     axis -90 -7.62852e-016 -20   XYZ
    dof rx
    limits (-90.0 20.0)
  end
  begin
     id 11 
     name lowerback
     direction -0.0190651 0.988667 0.148909   
     length 1.90627   
     axis 0 0 0   XYZ
    dof rx ry rz
    limits (-20.0 45.0)
           (-30.0 30.0)
           (-30.0 30.0)
  end
  begin
     id 12 
     name upperback
     direction -0.0180344 0.995767 -0.0901298   
     length 1.88167   
     axis 0 0 0   XYZ
    dof rx ry rz
    limits (-20.0 45.0)
           (-30.0 30.0)
           (-30.0 30.0)
  end
  begin
     id 13 
     name thorax
     direction -0.00329861 0.986394 -0.164366   
     length 1.91528   
     axis 0 0 0   XYZ
    dof rx ry rz
    limits (-20.0 45.0)
           (-30.0 30.0)
           (-30.0 30.0)
  end
  begin
     id 14 
     name lowerneck
     direction -0.0177752 0.978637 -0.204826   
     length 2.09812   
     axis 0 0 0   XYZ
    dof rx ry rz
    limits (-20.0 45.0)
           (-30.0 30.0)
           (-30.0 30.0)
  end
  begin
     id 15 
     name upperneck
     direction 0.108032 0.994134 0.00511541   
     length 2.11937   
     axis 0 0 0   XYZ
    dof rx ry rz
    limits (-20.0 45.0)
           (-30.0 30.0)
           (-30.0 30.0)
  end
  begin
     id 16
     name head
     direction 0.0423659 0.998938 0.0181058  
     length 2.14816  
     axis 0 0 0   XYZ
    dof rx ry rz
    limits (-20.0 45.0)
           (-30.0 30.0)
           (-30.0 30.0)
  end
  begin
     id 17 
     name lclavicle
     direction 0.869509 0.396908 0.293968  
     length 4.73713  
     axis 0 0 0   XYZ
    dof ry rz
    limits (-20.0 10.0)
           (0.0 20.0)
  end
  begin
     id 18 
     name lhumerus
     direction 1 -4.49e-011 3.63829e-027   
     length 4.72096   
     axis 180 -30 -90   XYZ
    dof rx ry rz
    limits (-60.0 90.0)
           (-90.0 90.0)
           (-90.0 90.0)
  end
  begin
     id 19
     name lradius
     direction 1 -4.48932e-011 7.19196e-027   
     length 3.18148   
     axis 180 -30 -90   XYZ
    dof rx
    limits (-10.0 170.0)
  end
  begin
     id 20
     name lwrist
     direction 1 -4.48995e-011 1.85462e-026   
     length 1.59074   
     axis -1.20349e-014 90 90   XYZ
    dof ry
    limits (-180.0 0.0)
 end
  begin
     id 21 
     name lhand
     direction 1 -4.48943e-011 3.70924e-026   
     length 0.848715   
     axis -2.36681e-014 90 90   XYZ
    dof rx rz
    limits (-90.0 90.0)
           (-45.0 45.0)
  end
  begin
     id 22 
     name lfingers
     direction 1 -4.48949e-011 7.41849e-026   
     length 0.684256   
     axis -4.73363e-014 90 90   XYZ
    dof rx
    limits (0.0 90.0)
  end
  begin
     id 23
     name lthumb
     direction 0.707107 -6.35018e-011 0.707107   
     length 0.982458   
     axis -90 45 2.85299e-015   XYZ
    dof rx rz
    limits (-45.0 45.0)
           (-45.0 45.0)
  end
  begin
     id 24 
     name rclavicle
     direction -0.923214 0.372787 0.0932992   
     length 4.28107  
     axis 0 0 0   XYZ 
    dof ry rz
    limits (-10.0 20.0)
           (-20.0 0.0)
  end
  begin
     id 25 
     name rhumerus
     direction -1 -4.48968e-011 6.59881e-018  
     length 4.76918   
     axis 180 30 90   XYZ
    dof rx ry rz
    limits (-90.0 60.0)
           (-90.0 90.0)
           (-90.0 90.0)
  end
  begin
     id 26 
     name rradius
     direction -1 0.000264575 -0.000152753   
     length 3.36438   
     axis 180 30 90   XYZ
    dof rx
    limits (-10.0 170.0)
  end
  begin
     id 27 
     name rwrist
     direction -1 -4.86632e-005 -0.00030086   
     length 1.68219   
     axis -1.20349e-014 -90 -90   XYZ
    dof ry
    limits (-180.0 0.0)
  end
  begin
     id 28
     name rhand
     direction -1 -4.48915e-011 3.70924e-026   
     length 0.767694   
     axis -2.36681e-014 -90 -90   XYZ
    dof rx rz
    limits (-90.0 90.0)
           (-45.0 45.0)
  end
  begin
     id 29
     name rfingers
     direction -1 -4.49015e-011 7.41849e-026   
     length 0.618935   
     axis -4.73363e-014 -90 -90   XYZ
    dof rx
    limits (0.0 90.0)
  end
  begin
     id 30
     name rthumb
     direction -0.707107 -6.34859e-011 0.707107   
     length 0.88867   
     axis -90 -45 -2.85299e-015   XYZ
    dof rx rz
    limits (-45.0 45.0)
           (-45.0 45.0)
  end
:hierarchy
  begin
    root lhipjoint rhipjoint lowerback
    lhipjoint lfemur
    lfemur ltibia
    ltibia lfoot
    lfoot ltoes
    rhipjoint rfemur
    rfemur rtibia
    rtibia rfoot
    rfoot rtoes
    lowerback upperback
    upperback thorax
    thorax lowerneck lclavicle rclavicle
    lowerneck upperneck
    upperneck head
    lclavicle lhumerus
    lhumerus lradius
    lradius lwrist
    lwrist lhand lthumb
    lhand lfingers
    rclavicle rhumerus
    rhumerus rradius
    rradius rwrist
    rwrist rhand rthumb
    rhand rfingers
  end

#!OML:ASF C:\Documents and Settings\Administrator\Desktop\New Folder (2)\VR_Jason.ASF
:FULLY-SPECIFIED
:DEGREES
249
root -0.465369 17.6501 -1.14621 15.5708 0.135205 0.102191
lowerback -24.4846 1.4174 0.476584
upperback 6.23504 2.38574 -3.04472
thorax 20.9928 1.33014 -2.76241
lowerneck 29.7839 -6.9395 -9.32931
upperneck 8.10125 -11.6971 22.0413
head -0.432094 -7.12231 9.68411
rclavicle 2.08724e-014 2.06736e-014
rhumerus 30.9885 29.2444 -18.6246
rradius 58.1064
rwrist -28.185
rhand -21.4408 19.385
rfingers 7.12502
rthumb 4.94873 -10.5373
lclavicle 2.08724e-014 2.06736e-014
lhumerus 49.2258 -25.4652 3.8603
lradius 66.6913
lwrist 34.2733
lhand -13.6552 36.6396
lfingers 7.12502
lthumb 12.4616 66.2481
rfemur -28.4592 -9.5306 13.6318
rtibia 28.3263
rfoot -10.5686 -19.2646
rtoes -15.5902
lfemur -29.6482 -1.88133 -13.3211
ltibia 28.8239
lfoot -17.0939 13.459
ltoes -15.3409
250
root -0.479452 17.6415 -1.15243 15.282 -0.107366 -0.0583947
lowerback -24.3643 1.20453 0.071823
upperback 6.35068 2.20631 -2.91408
thorax 21.0345 1.19281 -2.4615
lowerneck 31.1674 -6.82266 -9.09388
upperneck 7.48021 -11.4007 22.3626
head -0.849241 -7.08789 9.86141
rclavicle 1.37161e-014 3.18055e-015
rhumerus 29.7122 28.2705 -16.1566
rradius 61.4387
rwrist -29.0087
rhand -21.1083 19.6954
rfingers 7.12502
rthumb 5.26973 -10.219
lclavicle 1.37161e-014 3.18055e-015
lhumerus 48.279 -24.204 0.496625
lradius 69.405
lwrist 35.6343
lhand -13.4232 36.7608
lfingers 7.12502
lthumb 12.6852 66.3556
rfemur -28.1565 -8.05869 13.5872
rtibia 28.3351
rfoot -10.664 -20.4035
rtoes -15.012
lfemur -29.3624 -1.66206 -13.0594
ltibia 28.9054
lfoot -17.1006 13.5271
ltoes -15.6075
251
root -0.481672 17.6358 -1.14296 15.0765 -0.456411 -0.244523
lowerback -24.3526 1.0809 -0.100665
upperback 6.37843 2.07632 -2.81831
thorax 21.0425 1.1077 -2.30862
lowerneck 32.3865 -6.81346 -8.67794
upperneck 7.02698 -11.1951 22.2797
head -1.19442 -7.05838 9.85063
rclavicle -5.96354e-015 1.74931e-014
rhumerus 28.0363 27.4274 -13.9862
rradius 64.8445
rwrist -30.2566
rhand -20.9206 19.7938
rfingers 7.12502
rthumb 5.451 -10.1161
lclavicle -5.96354e-015 1.74931e-014
lhumerus 46.4995 -23.0724 -2.06043
lradius 72.3673
lwrist 36.8637
lhand -13.1851 37.0711
lfingers 7.12502
lthumb 12.9148 66.6514
rfemur -27.9315 -7.46772 13.7181
rtibia 28.2914
rfoot -10.5909 -20.6297
rtoes -14.8559
lfemur -29.0598 -1.67645 -12.787
ltibia 29.0015
lfoot -17.4021 13.7819
ltoes -14.8722
252
root -0.476531 17.6369 -1.11741 14.9512 -0.740931 -0.542424
lowerback -24.4974 0.987145 -0.0104717
upperback 6.38042 1.90746 -2.7521
thorax 21.1195 1.04312 -2.35246
lowerneck 33.5911 -6.80942 -8.11898
upperneck 6.566 -10.9331 22.1145
head -1.5547 -6.9931 9.7829
rclavicle 2.78299e-015 -2.54444e-014
rhumerus 26.0637 26.5736 -12.4064
rradius 68.1404
rwrist -31.4423
rhand -20.8542 19.9834
rfingers 7.12502
rthumb 5.51517 -9.92487
lclavicle 2.78299e-015 -2.54444e-014
lhumerus 43.9277 -22.0732 -4.07766
lradius 75.6503
lwrist 37.8677
lhand -12.9103 37.6608
lfingers 7.12502
lthumb 13.1797 67.2243
rfemur -27.6705 -7.51561 14.0492
rtibia 28.1572
rfoot -10.7028 -20.1913
rtoes -14.431
lfemur -28.772 -1.74249 -12.4469
ltibia 29.1292
lfoot -17.7942 14.1185
ltoes -13.9865
253
root -0.469999 17.6381 -1.09436 14.8561 -1.16055 -0.809983
lowerback -24.456 0.923114 0.0674878
upperback 6.25862 1.78439 -2.73022
thorax 20.9306 0.998105 -2.42091
lowerneck 35.12 -6.6289 -7.88184
upperneck 6.04777 -10.538 22.4625
head -1.9656 -6.92381 9.97407
rclavicle 3.97569e-016 1.35174e-014
rhumerus 23.4579 25.905 -11.3587
rradius 71.7223
rwrist -32.3564
rhand -21.0411 19.6888
rfingers 7.12502
rthumb 5.33468 -10.224
lclavicle 3.97569e-016 1.35174e-014
lhumerus 40.6001 -21.3362 -5.79425
lradius 79.3555
lwrist 38.6525
lhand -12.9756 37.8437
lfingers 7.12502
lthumb 13.1168 67.4112
rfemur -27.4354 -7.4281 14.3154
rtibia 27.9371
rfoot -10.6865 -19.7522
rtoes -14.023
lfemur -28.5297 -1.54483 -12.216
ltibia 29.2849
lfoot -18.0481 14.4272
ltoes -14.4547
254
root -0.460583 17.6412 -1.07414 14.8618 -1.84373 -1.09375
lowerback -24.4232 0.913221 0.108643
upperback 6.22149 1.74182 -2.66457
thorax 20.8583 0.978881 -2.38621
lowerneck 36.1594 -6.52706 -7.6376
upperneck 5.49259 -10.2272 22.6555
head -2.31817 -6.8621 10.078
rclavicle 4.37326e-015 -3.65764e-014
rhumerus 20.3784 24.8591 -10.8425
rradius 75.4169
rwrist -32.8631
rhand -21.3986 18.8251
rfingers 7.12502
rthumb 4.98952 -11.0961
lclavicle 4.37326e-015 -3.65764e-014
lhumerus 36.7987 -20.376 -6.91178
lradius 83.0826
lwrist 39.1851
lhand -13.1305 37.8058
lfingers 7.12502
lthumb 12.9674 67.3829
rfemur -27.3803 -7.22204 14.6025
rtibia 27.6557
rfoot -10.3034 -19.2935
rtoes -14.2973
lfemur -28.3763 -1.17472 -12.0285
ltibia 29.4387
lfoot -17.9038 15.0654
ltoes -16.3567
255
root -0.452576 17.644 -1.05169 14.9509 -2.5258 -1.35532
lowerback -24.5063 0.858041 0.081164
upperback 6.2377 1.65824 -2.57003
thorax 20.9165 0.932047 -2.2967
lowerneck 36.8531 -6.41724 -7.4149
upperneck 4.95612 -9.91636 22.7106
head -2.62622 -6.77203 10.1081
rclavicle 4.77083e-015 3.33958e-014
rhumerus 16.8588 23.4412 -10.9224
rradius 79.144
rwrist -33.1414
rhand -21.3002 18.7048
rfingers 7.12502
rthumb 5.08446 -11.2142
lclavicle 4.77083e-015 3.33958e-014
lhumerus 32.4851 -19.2916 -7.45079
lradius 86.8745
lwrist 39.7113
lhand -13.2831 38.1331
lfingers 7.12502
lthumb 12.8203 67.7194
rfemur -27.4093 -7.18021 14.93
rtibia 27.3621
rfoot -9.9153 -18.7605
rtoes -14.7972
lfemur -28.273 -0.877397 -11.8224
ltibia 29.5513
lfoot -17.7247 15.6694
ltoes -16.9539
256
root -0.446822 17.6468 -1.01862 14.9773 -3.09178 -1.63575
lowerback -24.3658 0.744482 0.0426939
upperback 6.09944 1.49261 -2.48518
thorax 20.6406 0.848014 -2.24478
lowerneck 37.8198 -6.12172 -7.42866
upperneck 4.46914 -9.45792 23.1385
head -2.96294 -6.65801 10.3255
rclavicle -1.78906e-014 7.95139e-015
rhumerus 13.0776 22.3118 -11.2546
rradius 82.9854
rwrist -33.723
rhand -21.0254 19.0565
rfingers 7.12502
rthumb 5.34987 -10.856
lclavicle -1.78906e-014 7.95139e-015
lhumerus 27.7362 -18.5712 -7.66325
lradius 90.7668
lwrist 40.12
lhand -13.6772 38.1553
lfingers 7.12502
lthumb 12.4404 67.7651
rfemur -27.2823 -7.13502 15.2704
rtibia 27.0933
rfoot -9.73941 -18.4045
rtoes -15.3365
lfemur -28.022 -0.776785 -11.5276
ltibia 29.6166
lfoot -17.9748 16.1353
ltoes -16.2054
257
root -0.441629 17.6519 -0.983603 14.9731 -3.71072 -1.92058
lowerback -24.1381 0.673119 0.0191285
upperback 5.95168 1.37945 -2.40556
thorax 20.3081 0.788027 -2.18549
lowerneck 38.6699 -5.85802 -7.45481
upperneck 4.11147 -9.06508 23.5355
head -3.23666 -6.56507 10.5262
rclavicle -3.57812e-015 -8.74653e-015
rhumerus 9.17042 21.22 -11.9082
rradius 86.5711
rwrist -34.2676
rhand -21.0398 19.2897
rfingers 7.12502
rthumb 5.33588 -10.6231
lclavicle -3.57812e-015 -8.74653e-015
lhumerus 22.7311 -17.8234 -7.45332
lradius 94.6153
lwrist 40.3042
lhand -13.9262 38.0908
lfingers 7.12502
lthumb 12.2002 67.715
rfemur -27.1421 -6.99189 15.5806
rtibia 26.9058
rfoot -9.77264 -18.1824
rtoes -16.0533
lfemur -27.6596 -0.782888 -11.1966
ltibia 29.612
lfoot -18.5718 16.4989
ltoes -14.9481
258
root -0.439077 17.6539 -0.964066 14.9965 -4.28083 -2.09191
lowerback -24.0633 0.650963 -0.119534
upperback 5.94137 1.3684 -2.28067
thorax 20.2415 0.754958 -1.96976
lowerneck 39.3929 -5.67664 -7.57403
upperneck 3.69466 -8.80549 23.8072
head -3.48864 -6.52058 10.6984
rclavicle 2.78299e-015 -3.97569e-015
rhumerus 4.59233 19.6077 -12.9924
rradius 90.1491
rwrist -34.6139
rhand -21.0105 19.6337
rfingers 7.12502
rthumb 5.36421 -10.2784
lclavicle 2.78299e-015 -3.97569e-015
lhumerus 17.3031 -16.6894 -6.64362
lradius 98.7065
lwrist 40.6327
lhand -14.2432 38.6492
lfingers 7.12502
lthumb 11.8946 68.2913
rfemur -27.0762 -6.66958 15.7363
rtibia 26.7589
rfoot -9.97974 -18.2572
rtoes -16.5847
lfemur -27.3843 -0.72946 -10.9887
ltibia 29.5725
lfoot -18.882 16.8355
ltoes -14.5109
259
root -0.438297 17.6541 -0.948711 15.0238 -4.71785 -2.06615
lowerback -23.8846 0.603713 -0.467019
upperback 5.91528 1.38405 -2.13309
thorax 20.0892 0.705599 -1.60052
lowerneck 39.9255 -5.54939 -7.75658
upperneck 3.30258 -8.64895 23.9908
head -3.69154 -6.50544 10.8415
rclavicle -6.75868e-015 -1.43125e-014
rhumerus -0.740177 17.6829 -14.246
rradius 94.0178
rwrist -35.081
rhand -21.7063 19.8869
rfingers 7.12502
rthumb 4.6924 -10.0411
lclavicle -6.75868e-015 -1.43125e-014
lhumerus 11.552 -15.4597 -5.24757
lradius 102.784
lwrist 40.7577
lhand -14.747 38.4903
lfingers 7.12502
lthumb 11.4088 68.1599
rfemur -27.0172 -6.44916 15.6889
rtibia 26.6724
rfoot -10.3359 -18.3722
rtoes -16.7616
lfemur -27.177 -0.652062 -11.0042
ltibia 29.5131
lfoot -19.0619 17.0494
ltoes -14.3752
